<svg version="1.1" id="Layer_1" xmlns="http://www.w3.org/2000/svg" xmlns:xlink="http://www.w3.org/1999/xlink" x="0px" y="0px"
	 height="50px" viewBox="0 0 4600 1240" enable-background="new 0 0 864 941" xml:space="preserve">

	<style>
		.title {
			font : 1200px sans-serif
		}
	</style>

	<text x="0" y="1000" class="title" fill="white">W</text>
	<text x="1790" y="1000" class="title" fill="white">olNet</text>
	<svg x="1070" y="320">
		<path fill="#28549B" opacity="1.000000" stroke="none" 
			d="
		M74.999832,461.063568 
			C150.085205,449.054993 219.189255,422.160828 283.891296,383.475525 
			C337.599915,351.363251 385.322693,311.865326 428.077606,266.266663 
			C428.988647,265.295013 429.914246,264.335907 430.863892,263.402344 
			C431.081604,263.188324 431.427277,263.104492 432.241852,262.696228 
			C447.652466,280.321106 467.439606,289.608429 491.504395,291.275543 
			C490.672729,292.503204 490.151642,293.627777 489.324493,294.441010 
			C472.936035,310.552582 456.566315,326.684448 440.005280,342.617279 
			C438.477844,344.086731 435.651062,344.989563 433.486328,344.889160 
			C415.516266,344.055847 398.124298,345.974792 382.146027,354.981171 
			C359.307617,367.854248 345.176147,386.759430 341.841034,413.231018 
			C341.615021,415.025085 339.528473,417.044098 337.788635,418.119720 
			C307.428040,436.890503 275.859650,453.389374 243.137665,467.639099 
			C191.365295,490.184937 137.975159,507.638062 82.469444,518.431030 
			C78.712700,519.161560 77.064819,518.283203 75.737083,514.869995 
			C69.769432,499.528992 63.599545,484.266724 57.547153,468.958496 
			C56.954433,467.459320 56.666698,465.839569 56.100071,463.775513 
			C62.491783,462.854309 68.528862,461.984222 74.999832,461.063568 
		z"/>
		<path fill="#28549B" opacity="1.000000" stroke="none" 
			d="
		M666.112854,538.366333 
			C702.116455,549.687927 734.560669,566.501160 750.356812,603.153564 
			C765.999695,639.450439 758.258728,668.588806 730.083008,693.902405 
			C708.956238,712.883057 684.070312,725.712463 657.920532,735.932983 
			C636.080688,744.468872 613.783508,751.879028 591.513550,759.258362 
			C564.986145,768.048584 539.588562,779.098145 516.166321,794.460510 
			C515.349060,794.996643 514.458069,795.420410 513.358643,796.031433 
			C502.790375,777.336121 487.067200,764.959290 465.889069,757.340698 
			C482.304474,750.562500 497.421265,744.030273 512.752258,738.046631 
			C552.447937,722.553589 592.353516,707.592102 631.936401,691.819092 
			C648.943420,685.042114 665.473328,676.975586 679.384094,664.589233 
			C695.408020,650.321289 696.008179,630.946350 681.070190,615.429016 
			C670.513855,604.463318 657.241333,598.009155 643.484192,592.310425 
			C640.410095,591.036987 637.251709,589.967041 634.028687,588.296875 
			C643.132324,573.829529 652.353210,559.877686 661.533997,545.899597 
			C663.146240,543.444946 664.590820,540.880188 666.112854,538.366333 
		z"/>
		<path fill="#A349A4" opacity="1.000000" stroke="none" 
			d="
		M290.723511,95.336426 
			C300.604736,113.012238 302.252625,131.048157 295.044098,149.635559 
			C286.520691,171.613251 269.739716,185.063828 247.837891,191.350571 
			C224.312592,198.103317 201.411621,194.733688 180.901230,180.862091 
			C165.325775,170.328125 155.057693,155.418839 152.295441,136.779541 
			C149.768753,119.729759 153.287308,103.345917 164.206619,89.355827 
			C179.662857,69.552940 200.109634,60.093292 225.219070,59.932636 
			C247.827194,59.787987 266.925171,67.552025 282.379333,83.991997 
			C285.487213,87.298172 287.826599,91.326820 290.723511,95.336426 
		z"/>
		<path fill="#A349A4" opacity="1.000000" stroke="none" 
			d="
		M381.716797,871.216187 
			C374.082062,861.826111 368.325134,851.788879 366.616577,840.054260 
			C364.693329,826.844788 365.611877,813.811951 371.885803,801.659180 
			C382.484222,781.129700 399.441498,768.725952 421.744965,763.707642 
			C453.133636,756.645020 488.257568,768.670715 505.131775,797.980713 
			C517.197571,818.938660 515.591614,848.640503 499.993530,867.683105 
			C485.369507,885.536560 466.927277,894.697937 444.001373,896.110352 
			C426.016602,897.218323 409.797058,892.596680 394.982849,882.868530 
			C390.209473,879.734009 386.287231,875.303284 381.716797,871.216187 
		z"/>
		<path fill="#A349A4" opacity="1.000000" stroke="none" 
			d="
		M495.773132,435.468719 
			C487.886292,460.674072 471.145874,476.612274 446.595367,483.994232 
			C422.381287,491.274994 399.187012,487.665405 378.331573,473.496735 
			C363.119781,463.162170 353.054382,448.346710 350.329407,430.037964 
			C347.762054,412.787964 351.290100,396.275208 362.392853,382.144836 
			C377.941925,362.355713 398.445496,353.013702 423.565643,352.933441 
			C446.206604,352.861115 465.403778,360.645874 480.647430,377.293030 
			C490.497406,388.049957 496.746643,400.753815 496.927551,415.705017 
			C497.005585,422.156982 496.286133,428.618591 495.773132,435.468719 
		z"/>
		<path fill="#A349A4" opacity="1.000000" stroke="none" 
			d="
		M218.723511,276.336395 
			C228.604660,294.012207 230.252640,312.048126 223.044113,330.635498 
			C214.520798,352.613190 197.739822,366.063782 175.837982,372.350494 
			C152.312744,379.103210 129.411789,375.733856 108.901344,361.862152 
			C93.325943,351.328125 83.057770,336.418976 80.295456,317.779724 
			C77.768707,300.729980 81.287193,284.346069 92.206482,270.355988 
			C107.662674,250.553162 128.109390,241.093262 153.218811,240.932632 
			C175.826828,240.788010 194.925034,248.551575 210.379135,264.991760 
			C213.487091,268.298035 215.826523,272.326721 218.723511,276.336395 
		z"/>
		<path fill="#3563B1" opacity="1.000000" stroke="none" 
			d="
		M360.982208,622.979980 
			C367.887939,617.917664 375.125061,613.244934 381.629730,607.711182 
			C394.759033,596.541504 408.117554,585.530579 420.281464,573.355164 
			C487.280334,506.292694 528.862671,425.569672 548.102539,333.037842 
			C549.309509,327.232849 550.319824,321.386963 551.592163,314.658081 
			C568.373657,332.121796 583.451050,349.963470 596.996094,369.800293 
			C593.514893,384.224762 590.796753,398.168945 586.474731,411.596863 
			C568.027466,468.909332 535.766479,517.222900 490.003113,556.345703 
			C465.567871,577.235229 438.633514,594.297729 408.858887,606.644409 
			C396.276337,611.862061 383.636047,616.954895 370.888947,621.750854 
			C367.861145,622.890015 364.298737,622.608215 360.982208,622.979980 
		z"/>
		<path fill="#4674CE" opacity="1.000000" stroke="none" 
			d="
		M229.171112,499.208435 
			C269.262695,483.089996 307.495667,464.083130 344.872162,441.687347 
			C351.576874,460.495514 363.928711,474.403717 381.304504,484.923645 
			C370.175354,491.218719 359.408447,497.460419 348.502930,503.449738 
			C312.493469,523.226318 274.911682,539.501404 236.142212,552.983948 
			C200.493271,565.381348 164.079605,574.912659 126.746162,580.794922 
			C122.365555,581.485168 119.294029,580.761902 116.516815,576.973999 
			C107.896507,565.216370 98.946884,553.700256 89.527733,541.304321 
			C138.276718,531.466064 184.111221,517.265686 229.171112,499.208435 
		z"/>
		<path fill="#28539B" opacity="1.000000" stroke="none" 
			d="
		M600.989197,334.175964 
			C590.738770,322.582550 580.862183,310.628235 570.124023,299.505768 
			C560.934265,289.987183 550.892029,281.269928 540.982605,272.473419 
			C528.356689,261.265594 515.933716,249.757004 502.618683,239.413910 
			C480.213715,222.009811 455.971344,207.344330 430.733459,194.371353 
			C391.358734,174.131592 350.142670,158.835037 307.095245,148.480011 
			C306.448914,148.324554 305.821381,148.091156 304.773987,147.766846 
			C307.847687,134.703445 307.987000,121.532661 305.106018,107.534363 
			C307.169708,107.795776 309.040741,107.922585 310.866547,108.280174 
			C356.752350,117.267128 400.522522,132.303970 441.942749,154.086166 
			C486.064514,177.289047 525.660950,206.659409 560.116455,242.615341 
			C574.889282,258.031586 588.001709,275.039062 601.751526,291.973999 
			C601.423889,294.578735 601.040894,296.532166 601.030823,298.487488 
			C600.969849,310.383392 600.993713,322.279755 600.989197,334.175964 
		z"/>
		<path fill="#325292" opacity="1.000000" stroke="none" 
			d="
		M411.513062,678.526611 
			C401.284485,680.280273 391.462799,681.919067 381.641113,683.557861 
			C381.452087,683.189331 381.263062,682.820862 381.074036,682.452332 
			C507.552185,629.263794 581.459656,531.428223 619.837158,401.639496 
			C620.369324,402.827789 620.630920,403.568665 621.012695,404.241272 
			C628.984253,418.282898 637.041870,432.276733 644.855774,446.405365 
			C645.781189,448.078613 646.023804,450.655212 645.514221,452.521210 
			C616.018188,560.520020 548.439941,633.146912 442.744507,670.092102 
			C432.724487,673.594421 422.206635,675.672485 411.513062,678.526611 
		z"/>
		<path fill="#4674CE" opacity="1.000000" stroke="none" 
			d="
		M48.518398,328.502441 
			C58.712139,270.381317 83.443710,219.781509 122.462593,176.155334 
			C127.673363,170.329300 133.164825,164.726852 138.839493,159.351501 
			C143.770508,154.680588 149.898544,156.106522 153.032028,161.979568 
			C158.084412,171.449188 165.454132,178.924149 173.878769,185.426025 
			C176.188110,187.208298 178.534271,188.942886 181.087708,190.868378 
			C174.051483,198.704193 167.056061,206.455368 160.110718,214.251144 
			C157.785522,216.861069 155.180847,219.341507 153.410965,222.303589 
			C148.699142,230.189316 141.842804,233.175385 132.922928,235.327972 
			C104.451195,242.198944 83.847969,259.052582 74.833992,287.691376 
			C68.371971,308.222168 71.617020,327.922241 82.853378,346.205597 
			C84.468994,348.834473 84.994720,350.920593 84.118332,353.947052 
			C76.919907,378.805450 72.292351,404.132202 70.797073,430.000916 
			C70.653915,432.477570 70.293587,434.941711 69.987961,437.850739 
			C63.512669,438.674164 57.134377,439.485291 50.302029,440.354126 
			C42.634109,403.021118 42.370499,366.033722 48.518398,328.502441 
		z"/>
		<path fill="#A349A4" opacity="1.000000" stroke="none" 
			d="
		M310.993683,549.001831 
			C323.783905,542.776794 336.192200,536.634277 348.644501,530.469971 
			C357.716003,536.741516 365.349609,544.835510 370.074127,554.906372 
			C373.402893,562.002014 374.885468,569.988892 376.927307,577.648499 
			C377.584320,580.113098 376.388458,581.781311 374.096344,583.686768 
			C346.894135,606.300110 316.079285,623.092407 285.071472,639.602356 
			C284.924530,639.680603 284.768982,639.747009 284.633545,639.841858 
			C275.733246,646.076111 267.732117,644.475769 259.271179,638.201904 
			C246.913162,629.038391 237.354904,617.961975 232.806976,603.211975 
			C231.050766,597.516113 231.033066,591.302307 229.953354,585.373657 
			C229.145813,580.939575 231.547836,579.224487 235.151245,578.010925 
			C243.384552,575.238037 251.682297,572.615479 259.770599,569.461731 
			C276.780090,562.829407 293.671753,555.894836 310.993683,549.001831 
		z"/>
		<path fill="#2A8EE6" opacity="1.000000" stroke="none" 
			d="
		M311.891449,212.877380 
			C319.731415,197.663452 334.909302,193.100937 348.389130,186.230347 
			C349.173798,185.830444 350.416138,185.831207 351.268188,186.137985 
			C359.361725,189.052048 367.416870,192.072784 375.924591,195.226517 
			C362.807190,211.905746 353.234772,229.894318 345.755676,249.058380 
			C336.511292,272.745667 330.910706,297.340210 327.048279,322.399506 
			C326.753845,324.309845 325.739655,326.742493 324.257477,327.740753 
			C304.524109,341.030853 284.648773,354.110291 264.798218,367.226196 
			C264.274323,367.572357 263.631287,367.738220 262.078888,368.398773 
			C262.865784,311.123779 280.147034,259.903412 311.891449,212.877380 
		z"/>
		<path fill="#26467E" opacity="1.000000" stroke="none" 
			d="
		M360.661530,623.095581 
			C364.298737,622.608215 367.861145,622.890015 370.888947,621.750854 
			C383.636047,616.954895 396.276337,611.862061 408.858887,606.644409 
			C438.633514,594.297729 465.567871,577.235229 490.003113,556.345703 
			C535.766479,517.222900 568.027466,468.909332 586.474731,411.596863 
			C590.796753,398.168945 593.514893,384.224762 597.105103,370.122742 
			C600.568481,372.243439 601.080322,375.289185 600.131470,379.386810 
			C581.254456,460.905762 544.000854,532.288208 482.877563,590.162476 
			C432.274200,638.075989 371.538422,666.510986 303.742035,680.617188 
			C300.946472,681.198914 297.779724,680.576782 294.887207,680.004089 
			C285.941681,678.232483 277.045197,676.213440 268.061859,673.669556 
			C300.504913,659.598450 331.403595,643.196655 360.661530,623.095581 
		z"/>
		<path fill="#4574CD" opacity="1.000000" stroke="none" 
			d="
		M590.885620,240.098328 
			C587.226501,236.231583 583.359375,232.533691 580.013550,228.412537 
			C578.729187,226.830612 577.986023,224.247345 578.101135,222.181961 
			C578.877502,208.256058 576.809875,195.029770 569.958801,182.662018 
			C560.747986,166.034485 547.085876,154.561737 529.828186,147.021317 
			C515.995789,140.977509 501.422150,140.508698 486.707336,141.043121 
			C484.267090,141.131775 481.639740,141.213150 479.454346,142.137985 
			C474.363800,144.292191 470.346497,142.696564 465.840424,140.157883 
			C414.291016,111.115463 359.202332,92.078247 300.867584,82.354210 
			C297.934998,81.865372 294.995605,81.417610 292.059418,80.950729 
			C292.033112,80.478874 292.006805,80.007011 291.980530,79.535156 
			C306.035339,78.034721 320.056671,75.839233 334.151093,75.159874 
			C382.860718,72.812042 429.661591,81.371078 474.157959,101.533646 
			C508.160889,116.941353 538.661499,137.490051 564.796875,165.125702 
			C565.719910,167.790863 566.363831,169.858582 567.330444,171.762497 
			C577.207703,191.217758 584.838013,211.533920 590.533875,232.573120 
			C591.174622,234.939804 590.793091,237.583252 590.885620,240.098328 
		z"/>
		<path fill="#4574CD" opacity="1.000000" stroke="none" 
			d="
		M171.420563,411.367126 
			C168.878265,412.287842 166.691879,413.054047 163.322998,414.234650 
			C165.050064,406.259583 166.723053,399.090607 168.130997,391.869965 
			C169.434921,385.182892 172.122620,381.523712 179.748627,379.210968 
			C207.132492,370.906372 226.065765,352.736023 233.375565,324.726837 
			C237.502487,308.913605 236.266617,292.709442 227.893661,276.793427 
			C241.039505,263.733612 254.337051,250.523102 267.634583,237.312592 
			C268.155304,237.665527 268.676025,238.018463 269.196747,238.371384 
			C268.317230,240.310364 267.452972,242.256439 266.555878,244.187256 
			C247.903717,284.332336 237.632324,326.438232 238.850632,370.794342 
			C239.107361,380.141449 235.878281,383.921997 228.170731,387.076019 
			C209.248886,394.819122 190.559402,403.130096 171.420563,411.367126 
		z"/>
		<path fill="#3561B2" opacity="1.000000" stroke="none" 
			d="
		M231.424072,239.423309 
			C225.132797,244.919922 219.091217,250.166870 212.606339,255.798843 
			C203.099579,246.049652 189.506821,238.995346 173.086121,234.515335 
			C184.113297,222.986069 194.208389,212.173889 204.709885,201.772034 
			C206.047760,200.446869 209.563492,200.839508 211.976624,201.154327 
			C239.628754,204.761597 264.664948,199.164993 284.465515,178.624329 
			C291.212738,171.624908 297.252838,168.708649 306.271149,172.715851 
			C309.114044,173.979034 312.348114,174.361725 316.671295,175.473526 
			C285.113617,193.536407 256.732483,214.177582 231.424072,239.423309 
		z"/>
		<path fill="#2A8EE6" opacity="1.000000" stroke="none" 
			d="
		M458.437988,489.553558 
			C445.818115,509.616882 430.923096,527.909912 414.878448,545.290771 
			C413.741455,546.522461 411.858337,547.601624 410.228577,547.754578 
			C399.983612,548.716187 389.714996,549.439270 379.445374,550.104858 
			C378.328156,550.177307 376.722137,549.729309 376.074158,548.929871 
			C369.894836,541.306335 363.873352,533.554749 357.634583,525.621338 
			C358.993225,524.832092 360.969238,523.694092 362.935883,522.540222 
			C377.554993,513.962891 392.142181,505.330231 406.827606,496.867981 
			C408.697571,495.790436 411.095062,495.023926 413.218781,495.088074 
			C428.244171,495.541748 443.088501,494.973999 457.712158,489.144989 
			C458.210693,489.273865 458.437988,489.553558 458.437988,489.553558 
		z"/>
		<path fill="#4674CE" opacity="1.000000" stroke="none" 
			d="
		M515.912659,364.948547 
			C514.023743,371.053009 511.952179,376.697235 510.534363,382.501160 
			C509.201843,387.955902 505.649628,391.325378 500.804230,394.858459 
			C493.366058,376.653961 480.658661,363.433014 464.108032,354.373505 
			C484.832092,332.876282 505.356018,311.586700 526.088440,290.080780 
			C529.019043,291.322083 530.566162,293.679565 529.746826,297.627380 
			C525.118652,319.926971 520.582764,342.245758 515.912659,364.948547 
		z"/>
		<path fill="#4574CD" opacity="1.000000" stroke="none" 
			d="
		M376.171387,239.119659 
			C382.926086,228.612732 389.527954,218.446411 396.119812,208.273605 
			C397.775940,205.717804 399.806396,205.162399 402.397430,206.935822 
			C403.075714,207.400070 403.853363,207.786957 404.641724,208.011993 
			C412.667328,210.302917 416.349152,214.897903 415.280426,223.860794 
			C414.733551,228.447479 417.145660,233.358368 418.012665,238.160248 
			C418.262207,239.542297 418.349518,241.556381 417.564575,242.434250 
			C398.358154,263.913849 377.786865,283.995392 354.587646,303.615417 
			C359.357788,280.401550 366.017944,259.386749 376.171387,239.119659 
		z"/>
		<path fill="#A349A4" opacity="1.000000" stroke="none" 
			d="
		M452.028931,234.002899 
			C474.969635,247.285599 495.488464,263.305084 515.960693,279.871796 
			C503.886139,285.841034 476.393188,285.378601 454.978912,271.848969 
			C435.639343,259.630127 424.034576,242.167221 422.745789,218.882095 
			C423.130554,218.399948 423.515320,217.917801 423.900085,217.435669 
			C433.155029,222.931976 442.410004,228.428284 452.028931,234.002899 
		z"/>
		<path fill="#1E65A3" opacity="1.000000" stroke="none" 
			d="
		M236.884232,627.950806 
			C244.609070,635.220032 252.333908,642.489258 260.754730,650.413391 
			C251.698151,653.815369 242.194122,657.455078 232.614380,660.883118 
			C231.582779,661.252319 230.031693,660.578918 228.855637,660.075806 
			C197.403763,646.618408 169.147430,628.199524 143.863083,605.188599 
			C143.176025,604.563293 142.642426,603.769470 141.648636,602.594849 
			C144.231384,602.000000 146.264801,601.531677 148.907806,601.342041 
			C165.806213,607.788818 181.859467,614.714478 198.461151,619.876099 
			C210.902969,623.744446 224.050766,625.342102 236.884232,627.950806 
		z"/>
		<path fill="#315291" opacity="1.000000" stroke="none" 
			d="
		M591.016724,240.407043 
			C590.793091,237.583252 591.174622,234.939804 590.533875,232.573120 
			C584.838013,211.533920 577.207703,191.217758 567.330444,171.762497 
			C566.363831,169.858582 565.719910,167.790863 564.946655,165.424530 
			C571.650879,172.173355 578.749146,178.955292 584.947815,186.478485 
			C614.162964,221.936340 634.377319,261.994324 645.380249,306.645416 
			C645.678894,307.857391 645.789124,309.115753 645.513977,310.600372 
			C628.694031,286.210510 611.262024,262.415161 591.016724,240.407043 
		z"/>
		<path fill="#1C3C6E" opacity="1.000000" stroke="none" 
			d="
		M601.105103,334.485260 
			C600.993713,322.279755 600.969849,310.383392 601.030823,298.487488 
			C601.040894,296.532166 601.423889,294.578735 601.891541,292.289246 
			C609.443237,302.029358 617.298645,311.752350 623.901062,322.262512 
			C633.797607,338.016632 642.885681,354.282593 652.126465,370.440186 
			C653.472961,372.794525 654.450500,375.761993 654.418091,378.431396 
			C654.295166,388.544739 653.686401,398.652222 653.260925,408.724609 
			C635.792053,383.907562 618.506531,359.351044 601.105103,334.485260 
		z"/>
		<path fill="#3561B2" opacity="1.000000" stroke="none" 
			d="
		M116.707466,375.306152 
			C126.491638,378.469940 135.958862,381.422455 145.282364,384.330170 
			C143.127335,395.524048 140.854309,407.590637 138.411758,419.622833 
			C138.162766,420.849335 137.094620,422.593964 136.070663,422.875244 
			C122.492210,426.605164 108.853584,430.116058 95.230049,433.681671 
			C93.238991,425.802368 100.089233,381.535675 104.606018,369.212646 
			C108.536285,371.174438 112.463409,373.134644 116.707466,375.306152 
		z"/>
		<path fill="#A349A4" opacity="1.000000" stroke="none" 
			d="
		M518.264709,151.661667 
			C552.630981,160.854584 571.939270,191.456757 569.996765,218.396484 
			C543.044617,192.794083 514.773132,169.877914 482.260834,149.879578 
			C495.192139,148.396744 506.600006,148.228821 518.264709,151.661667 
		z"/>
		<path fill="#2A8EE5" opacity="1.000000" stroke="none" 
			d="
		M236.819763,627.619019 
			C224.050766,625.342102 210.902969,623.744446 198.461151,619.876099 
			C181.859467,614.714478 165.806213,607.788818 149.295853,601.370117 
			C166.804276,596.867676 184.519989,592.553772 202.288971,588.471680 
			C203.860916,588.110596 206.137451,588.788818 207.474625,589.796509 
			C212.373322,593.488403 217.106293,597.418762 221.697006,601.490051 
			C223.182587,602.807556 224.154312,604.768799 225.163345,606.547791 
			C229.070618,613.436401 232.898087,620.370239 236.819763,627.619019 
		z"/>
		<path fill="#1C3B6D" opacity="1.000000" stroke="none" 
			d="
		M665.781128,538.158691 
			C664.590820,540.880188 663.146240,543.444946 661.533997,545.899597 
			C652.353210,559.877686 643.132324,573.829529 633.708496,588.120178 
			C625.755737,586.101074 618.019592,583.752014 609.684082,581.221008 
			C610.664856,579.572205 611.349243,578.343872 612.105835,577.161743 
			C620.954285,563.335999 629.911011,549.577759 638.588867,535.645813 
			C640.345520,532.825684 641.909668,531.500793 645.298096,532.497192 
			C651.972656,534.459778 658.727722,536.148804 665.781128,538.158691 
		z"/>
		<path fill="#315291" opacity="1.000000" stroke="none" 
			d="
		M646.441956,312.366577 
			C646.524170,312.305450 646.549927,312.540680 646.549927,312.540680 
			C646.549927,312.540680 646.359741,312.427704 646.441956,312.366577 
		z"/>
		<path fill="#2A8EE6" opacity="1.000000" stroke="none" 
			d="
		M458.100403,489.131348 
			C458.252808,488.785553 458.515472,488.582336 458.778137,488.379089 
			C458.796600,488.640900 458.815094,488.902710 458.635773,489.359039 
			C458.437988,489.553558 458.210693,489.273865 458.100403,489.131348 
		z"/>
	</svg>
</svg>